<svg id="logo" xmlns="http://www.w3.org/2000/svg" xmlns:xlink="http://www.w3.org/1999/xlink" width="125.7" height="90" viewBox="0 0 125.7 90">
  <defs>
    <clipPath id="clip-path">
      <rect id="Rectangle_1" data-name="Rectangle 1" width="125.7" height="90"/>
    </clipPath>
  </defs>
  <g id="Group_1" data-name="Group 1" clip-path="url(#clip-path)">
    <path id="Path_1" data-name="Path 1" d="M89.9,35.5A40.05,40.05,0,0,0,74,4.4c-.2-.2-.5-.3-.7-.5h0c-.1,0-.1-.1-.2-.1a17.27,17.27,0,0,0-4.1-2A12.917,12.917,0,0,0,64.3,1,15.162,15.162,0,0,0,56,3.4h0c-.1.1-.3.2-.4.3a.349.349,0,0,1-.2.1h0a7.018,7.018,0,0,0-.9.6c-.7.6-1.5,1.2-2.4,2h0c-.6.5-1.2,1.1-1.7,1.6h0l-.1.1a12.939,12.939,0,0,0-1.6,1.8,8.744,8.744,0,0,0-.8,1c-.3.4-.6.7-.8,1-.3.3-.5.7-.8,1a32.344,32.344,0,0,0-2.7,4.4c-.3.5-.6,1.1-.9,1.7l-.3.6c-.1.1-.1.3-.2.4,0,.1-.1.1-.1.2-.2.6-.5,1.2-.7,1.8s-.5,1.2-.7,1.9v.2c-.1.4-.2.7-.3,1.1s-.2.7-.3,1.1c-.1.5-.3,1-.4,1.5,0,.2-.1.4-.1.6s-.1.4-.1.6a.367.367,0,0,1-.1.3c0,.2-.1.5-.1.7a3.083,3.083,0,0,0-.1,1,12.31,12.31,0,0,0-.2,2v.5a2.2,2.2,0,0,1-.1.8V66H90V36.4a2.768,2.768,0,0,1-.1-.9M43.1,64.8H40V33.1c.1-.7.1-1.4.2-1.9,0-.3.1-.6.1-1,0-.2.1-.5.1-.7v-.3c0-.2.1-.4.1-.6l.1-.6c.1-.4.2-.9.3-1.4.1-.4.2-.7.3-1.1.1-.3.2-.7.3-1l.1-.2.6-1.8c.2-.6.5-1.2.7-1.8l.3-.6.3-.6c.3-.6.6-1.2.9-1.7.8-1.4,1.7-2.9,2.6-4.2.2-.3.5-.7.7-1,.3-.3.5-.7.8-1s.5-.6.8-.9a38.026,38.026,0,0,1,7-6.3,14.6,14.6,0,0,1,7.6-2.2,15.012,15.012,0,0,1,3.7.5A40.629,40.629,0,0,0,55,15.2a38.675,38.675,0,0,0-6.1,20.4v29H43.1Zm21.3-37h0v.3h0c-1.8,0-2.4.6-2.4,2.4h0c0-1.8-.6-2.4-2.4-2.4h0v-.2h0c1.8,0,2.4-.7,2.4-2.4h0c0,1.7.7,2.3,2.4,2.3m-5,8a.645.645,0,0,1,.6.6v7.9L63.9,40a.566.566,0,0,1,.8.8L60,46v3.3L63.9,45a.566.566,0,0,1,.8.8l-4.8,5.3v3.4l4-4.4a.566.566,0,0,1,.8.8l-4.8,5.3V65H58.8V56.2L54,50.7a.566.566,0,1,1,.8-.8l3.9,4.3V50.8L54,45.6a.566.566,0,0,1,.8-.8l3.9,4.3V46L54,40.7a.566.566,0,1,1,.8-.8l4,4.4V36.4a.576.576,0,0,1,.6-.6M53.8,25.2a.9.9,0,1,1,.9.9.9.9,0,0,1-.9-.9M69.3,17c-3.6,0-4.8,1.3-4.8,4.8h-.4c0-3.5-1.3-4.8-4.9-4.8h0v-.3c3.6,0,4.9-1.3,4.9-4.9h.3c0,3.6,1.3,4.9,4.9,4.9V17h0m3.8,40.9-3.7-1.6V46l3.7.9Zm0-12.1-3.7-.9v-9h0V27.5l3.7-.2Zm0-19.7-3.7.2V25.2a9.021,9.021,0,0,1,.9-4,4.671,4.671,0,0,0,.5-1c.7-1.2,1.4-2.4,2.2-3.5v9.4Zm5,33.9-3.8-1.7V47.2l3.8.9Zm0-13-3.8-.9V27.2l3.8-.2Zm0-21.2-3.8.2V15.2A37.906,37.906,0,0,1,78.1,11V25.8Zm6-7.5a33.019,33.019,0,0,1,2.8,7l-2.8.2ZM83,62.2l-3.8-1.7v-12l3.8.9Zm0-14-3.8-.9V26.9l3.8-.2Zm0-22.7-3.8.2V11.1A38.452,38.452,0,0,1,83,16.3Zm5.6,39.1-4.5-1.9v-13l4.5,1.1Zm0-26.7V49.6l-4.5-1.1v-22l3.2-.2c.2.9.4,1.7.6,2.6a42.219,42.219,0,0,1,.7,6.1v2.9Z" transform="translate(-1.4 -1)" fill="#24272a"/>
  </g>
  <g id="Group_2" data-name="Group 2" clip-path="url(#clip-path)">
    <path id="Path_2" data-name="Path 2" d="M59.7,56.1Z" transform="translate(-1.4 -1)" fill="#24272a"/>
  </g>
  <g id="Group_3" data-name="Group 3" clip-path="url(#clip-path)">
    <path id="Path_3" data-name="Path 3" d="M1.4,86.2a.684.684,0,0,1,.7-.7H3.5a.43.43,0,0,0,.4-.4V73.8a.43.43,0,0,0-.4-.4H2.1a.7.7,0,1,1,0-1.4H4.5a.812.812,0,0,1,.8.4l4.1,5.9c.1.2.4.2.6,0l4.1-5.9A.975.975,0,0,1,15,72h2.4a.7.7,0,1,1,0,1.4H16a.43.43,0,0,0-.4.4V85a.43.43,0,0,0,.4.4h1.4a.7.7,0,1,1,0,1.4H12.3a.7.7,0,1,1,0-1.4h1.4a.43.43,0,0,0,.4-.4V75.7a.215.215,0,0,0-.4-.1l-3.4,5a.567.567,0,0,1-1,0l-3.4-5a.215.215,0,0,0-.4.1V85a.43.43,0,0,0,.4.4H7.3a.7.7,0,1,1,0,1.4H2.1a.563.563,0,0,1-.7-.6" transform="translate(-1.4 -1)" fill="#24272a"/>
  </g>
  <g id="Group_4" data-name="Group 4" clip-path="url(#clip-path)">
    <path id="Path_4" data-name="Path 4" d="M19.8,83.9c0-2.1,1.7-3.2,4.4-3.3,1.9,0,2.9-.5,2.9-1.5,0-1.1-.8-1.8-2.7-1.8a2.748,2.748,0,0,0-2.8,1.8.716.716,0,1,1-1.3-.6c.5-1.7,2-2.6,4.1-2.6,2.8,0,4.1,1.2,4.1,3.6v5.4c0,.6.3.9.7.9s.7-.3.7-.9a.7.7,0,0,1,1.4,0,1.95,1.95,0,0,1-2,2.2,1.929,1.929,0,0,1-2.1-2.2V81.6c0-.2-.2-.3-.3-.2a5.521,5.521,0,0,1-2.6.6c-2,0-3,.7-3,2,0,1.2.8,1.8,2,1.8a2.422,2.422,0,0,0,2.2-1.1.764.764,0,0,1,.5-.2.684.684,0,0,1,.7.7.764.764,0,0,1-.2.5,3.615,3.615,0,0,1-3.2,1.4c-2.3,0-3.5-1.2-3.5-3.2" transform="translate(-1.4 -1)" fill="#24272a"/>
  </g>
  <g id="Group_5" data-name="Group 5" clip-path="url(#clip-path)">
    <path id="Path_5" data-name="Path 5" d="M32,86.2a.684.684,0,0,1,.7-.7h1.9a.265.265,0,0,0,.3-.3V74.5a1,1,0,0,0-1.1-1.1h-.4a.7.7,0,1,1,0-1.4h.8a1.87,1.87,0,0,1,2.1,2V85.1a.265.265,0,0,0,.3.3h1.9a.7.7,0,1,1,0,1.4H32.6c-.3.1-.6-.2-.6-.6" transform="translate(-1.4 -1)" fill="#24272a"/>
  </g>
  <g id="Group_6" data-name="Group 6" clip-path="url(#clip-path)">
    <path id="Path_6" data-name="Path 6" d="M42.1,83.9v-6a.265.265,0,0,0-.3-.3H40.3a.7.7,0,1,1,0-1.4h1.5a.265.265,0,0,0,.3-.3V72.8a.7.7,0,0,1,1.4,0v3.1a.265.265,0,0,0,.3.3h2.7a.7.7,0,1,1,0,1.4H43.8a.265.265,0,0,0-.3.3v6a1.76,1.76,0,0,0,1.8,1.9,1.839,1.839,0,0,0,1.9-1.9.7.7,0,0,1,1.4,0,3.25,3.25,0,0,1-6.5,0" transform="translate(-1.4 -1)" fill="#24272a"/>
  </g>
  <g id="Group_7" data-name="Group 7" clip-path="url(#clip-path)">
    <path id="Path_7" data-name="Path 7" d="M50,87.5a2.768,2.768,0,0,1,.3-1.3.752.752,0,0,1,.7-.5.647.647,0,0,1,.6.9,2.769,2.769,0,0,0-.1.9c0,1.2,1.4,2.2,4.3,2.2,2.6,0,4.2-.8,4.2-2.2,0-1.3-1.2-2-4.4-2-3.9,0-5.3-.7-5.3-2.5a1.944,1.944,0,0,1,2-2c1.5,0,1.7.9,3.4.9a2.366,2.366,0,0,0,2.6-2.4c0-1.5-1.1-2.3-2.6-2.3a2.45,2.45,0,0,0-2.6,2.1.7.7,0,0,1-1.4,0c0-2.1,1.7-3.5,3.9-3.5a5.853,5.853,0,0,1,1.3.2c.3.1.4,0,.5-.3a2.076,2.076,0,0,1,2-1.4,2.048,2.048,0,0,1,2.2,2.2.7.7,0,0,1-1.4,0,.851.851,0,1,0-1.7-.1c0,.8,1.1,1,1.1,2.9,0,2.1-1.6,3.6-4,3.6-2,0-2.4-1-3.2-1a.713.713,0,0,0-.8.7c0,.8.9,1.2,4,1.2,3.8,0,5.7.9,5.7,3.3,0,2.2-2.1,3.6-5.7,3.6-3.6.3-5.6-1-5.6-3.2" transform="translate(-1.4 -1)" fill="#24272a"/>
  </g>
  <g id="Group_8" data-name="Group 8" clip-path="url(#clip-path)">
    <path id="Path_8" data-name="Path 8" d="M63.4,83.9c0-2.1,1.7-3.2,4.4-3.3,1.9,0,2.9-.5,2.9-1.5,0-1.1-.8-1.8-2.7-1.8a2.748,2.748,0,0,0-2.8,1.8.716.716,0,1,1-1.3-.6c.5-1.7,2-2.6,4.1-2.6,2.8,0,4.1,1.2,4.1,3.6v5.4c0,.6.3.9.7.9s.7-.3.7-.9a.7.7,0,0,1,1.4,0,1.95,1.95,0,0,1-2,2.2,1.929,1.929,0,0,1-2.1-2.2V81.6c0-.2-.2-.3-.3-.2a5.146,5.146,0,0,1-2.7.6c-2,0-3,.7-3,2,0,1.2.8,1.8,2,1.8A2.422,2.422,0,0,0,69,84.7a.764.764,0,0,1,.5-.2.684.684,0,0,1,.7.7.764.764,0,0,1-.2.5,3.615,3.615,0,0,1-3.2,1.4c-2.2,0-3.4-1.2-3.4-3.2" transform="translate(-1.4 -1)" fill="#24272a"/>
  </g>
  <g id="Group_9" data-name="Group 9" clip-path="url(#clip-path)">
    <path id="Path_9" data-name="Path 9" d="M76.2,86.2a.684.684,0,0,1,.7-.7h1.3a.265.265,0,0,0,.3-.3V78.6a1,1,0,0,0-1.1-1.1H77a.7.7,0,0,1,0-1.4h.9a1.587,1.587,0,0,1,1.7,1.1c.2.3.4.4.7.1a3.966,3.966,0,0,1,3.1-1.4,3.1,3.1,0,0,1,3.3,2.2.712.712,0,0,1-.7,1,.675.675,0,0,1-.6-.4,2.163,2.163,0,0,0-2.2-1.4c-2,0-3.3,1.7-3.3,4.7v3.2a.265.265,0,0,0,.3.3h1.3a.7.7,0,0,1,0,1.4H76.7a.682.682,0,0,1-.5-.7" transform="translate(-1.4 -1)" fill="#24272a"/>
  </g>
  <g id="Group_10" data-name="Group 10" clip-path="url(#clip-path)">
    <path id="Path_10" data-name="Path 10" d="M88.2,81.5a5.286,5.286,0,0,1,5.3-5.6,4.208,4.208,0,0,1,3.1,1.2.711.711,0,1,1-.9,1.1,3.151,3.151,0,0,0-2.2-1,4.212,4.212,0,0,0,0,8.4,4.122,4.122,0,0,0,4-4.2v-7a1,1,0,0,0-1.1-1.1H96a.7.7,0,0,1,0-1.4h1a1.87,1.87,0,0,1,2.1,2V86a.7.7,0,0,1-1.4,0v-.6c0-.2-.2-.3-.4-.1a4.683,4.683,0,0,1-3.6,1.6,5.117,5.117,0,0,1-5.5-5.4" transform="translate(-1.4 -1)" fill="#24272a"/>
  </g>
  <g id="Group_11" data-name="Group 11" clip-path="url(#clip-path)">
    <path id="Path_11" data-name="Path 11" d="M101.3,81.5a5.507,5.507,0,0,1,5.5-5.6,5.146,5.146,0,0,1,5.3,5,.684.684,0,0,1-.7.7h-6.6a.7.7,0,1,1,0-1.4H110c.3,0,.4-.2.3-.4a3.571,3.571,0,0,0-3.5-2.6,4.2,4.2,0,0,0,0,8.4,3.543,3.543,0,0,0,3.4-2.2.755.755,0,0,1,.7-.4.713.713,0,0,1,.6,1.1,4.851,4.851,0,0,1-4.7,2.9,5.362,5.362,0,0,1-5.5-5.5" transform="translate(-1.4 -1)" fill="#24272a"/>
  </g>
  <g id="Group_12" data-name="Group 12" clip-path="url(#clip-path)">
    <path id="Path_12" data-name="Path 12" d="M113,86.2a.684.684,0,0,1,.7-.7H115a.265.265,0,0,0,.3-.3V78.6a1,1,0,0,0-1.1-1.1h-.4a.7.7,0,1,1,0-1.4h.8a1.8,1.8,0,0,1,1.8,1.1c.1.3.4.4.6.1a4.576,4.576,0,0,1,3.5-1.5c2.9,0,4.2,1.6,4.2,4.6v4.7a.265.265,0,0,0,.3.3h1.3a.7.7,0,0,1,0,1.4h-4.8a.7.7,0,1,1,0-1.4h1.4a.265.265,0,0,0,.3-.3V80.4c0-2.2-.9-3.3-2.9-3.3-2.2,0-3.7,1.6-3.7,4.5V85a.265.265,0,0,0,.3.3h1.3a.7.7,0,0,1,0,1.4h-4.8c-.1.2-.4-.1-.4-.5" transform="translate(-1.4 -1)" fill="#24272a"/>
  </g>
</svg>
